<svg xmlns="http://www.w3.org/2000/svg" width="280" height="280" viewBox="0 0 280 280" fill="none">
  <circle cx="140" cy="140" r="120" fill="#F5F7FA"/>
  <path d="M140 260C206.274 260 260 206.274 260 140C260 73.7258 206.274 20 140 20C73.7258 20 20 73.7258 20 140C20 206.274 73.7258 260 140 260Z" stroke="#3B82F6" stroke-width="10"/>
  <path d="M180 112.5V167.5C180 170.261 178.946 172.929 177.071 174.904C175.196 176.879 172.652 178 170 178H110C107.348 178 104.804 176.879 102.929 174.904C101.054 172.929 100 170.261 100 167.5V112.5" stroke="#3B82F6" stroke-width="10" stroke-linecap="round" stroke-linejoin="round"/>
  <path d="M193.75 112.5H86.25C82.798 112.5 80 109.602 80 106.031V99.0625C80 95.4922 82.798 92.5938 86.25 92.5938H193.75C197.202 92.5938 200 95.4922 200 99.0625V106.031C200 109.602 197.202 112.5 193.75 112.5Z" fill="#3B82F6"/>
  <line x1="140" y1="132.5" x2="140" y2="157.5" stroke="#3B82F6" stroke-width="10" stroke-linecap="round"/>
  <circle cx="140" cy="170" r="5" fill="#3B82F6"/>
</svg> 